<?xml version="1.0" standalone="no"?><!DOCTYPE svg PUBLIC "-//W3C//DTD SVG 1.1//EN" "http://www.w3.org/Graphics/SVG/1.1/DTD/svg11.dtd"><svg t="1632072304595" class="icon" viewBox="0 0 1080 1024" version="1.1" xmlns="http://www.w3.org/2000/svg" p-id="1178" xmlns:xlink="http://www.w3.org/1999/xlink" width="210.9375" height="200"><defs><style type="text/css"></style></defs><path d="M1009.04710011 403.19689764C1004.24356543 388.54307658 990.57477324 378.69279012 975.19130087 378.69279012L665.77069794 378.69279012 570.14995451 86.45546445C565.50451044 71.85028643 551.88436133 62.00000001 536.40360282 62.00000001 521.0201305 62.00000001 507.3513383 71.85028643 502.65725117 86.34601691L406.92705927 378.69279012 97.56726084 378.69279012C82.13514541 378.69279012 68.50283487 388.54307658 63.76010469 403.19689764 58.95657002 417.70478865 64.22221689 433.74494639 76.66276397 442.67100841L326.99380889 623.21095039 231.42170848 915.6063667C226.56953075 930.16290167 231.83517763 946.05712931 244.32436777 955.08047743 256.6554673 964.0551834 273.6806539 964.0551834 286.07255703 955.08047743L536.40360282 774.43108878 786.78329084 955.08047743C792.92451904 959.53134836 800.25750986 961.84190935 807.63914463 961.84190935 814.95997492 961.84190935 822.34160966 959.53134836 828.53148095 955.08047743 840.97202716 946.05712931 846.2376749 930.16290167 841.38549627 915.6063667L745.9106829 623.21095039 996.09579775 442.67100841C1008.52418429 433.74494639 1013.7411881 417.70478865 1009.04710011 403.19689764Z" fill="#079cff" p-id="1179"></path></svg>